<svg xmlns="http://www.w3.org/2000/svg" viewBox="-2 -2 68 70" role="img" aria-labelledby="title desc">
  <title id="title">Reforge Planner mark</title>
  <desc id="desc">A forging hammer crossing a toothed gear.</desc>
  <defs>
    <linearGradient id="steel" x1="0" y1="0" x2="1" y2="1">
      <stop offset="0" stop-color="#25384b"/>
      <stop offset="1" stop-color="#101923"/>
    </linearGradient>
    <linearGradient id="gold" x1="0" y1="0" x2="1" y2="1">
      <stop offset="0" stop-color="#ffd67b"/>
      <stop offset="1" stop-color="#d99a28"/>
    </linearGradient>
  </defs>
  <path fill="url(#steel)" stroke="#7290ad" stroke-width="2" d="M27 3h10l2 7 6 2 6-4 7 7-4 6 2 6 7 2v10l-7 2-2 6 4 6-7 7-6-4-6 2-2 7H27l-2-7-6-2-6 4-7-7 4-6-2-6-7-2V29l7-2 2-6-4-6 7-7 6 4 6-2 2-7Z"/>
  <circle cx="32" cy="34" r="16" fill="#0b1118" stroke="#415c76" stroke-width="2"/>
  <path fill="url(#gold)" stroke="#6f4710" stroke-width="1.5" stroke-linejoin="round" d="m17 18 7-7 20 20-7 7-8-8-13 17-4-4 13-17-8-8Z"/>
  <path fill="#f4ead3" opacity=".8" d="m20 17 4-4 6 6-4 4z"/>
  <path fill="#d99a28" d="m42 29 7 7-7 7-7-7z"/>
</svg>
